<?xml version="1.0" ?><svg id="Layer_1" style="enable-background:new 0 0 1024 1024;" version="1.1" viewBox="0 0 1024 1024" xml:space="preserve" xmlns="http://www.w3.org/2000/svg" xmlns:xlink="http://www.w3.org/1999/xlink"><style type="text/css">
	.st0{fill:none;stroke:#000000;stroke-width:20;stroke-linejoin:round;stroke-miterlimit:10;}
	.st1{fill:none;stroke:#FF2222;stroke-width:20;stroke-miterlimit:10;}
</style><g id="XMLID_90_"><path class="st0" d="M630.6,830.1c0.7,1.4,1.5,2.8,2.3,4.1c-5,4.7-10.1,9.3-15.3,13.8c-1.5,1.2-2.9,2.5-4.4,3.7   c-0.6,0.5-1.2,1-1.8,1.5c-0.5,0.4-1,0.8-1.5,1.2c-2.2,1.8-4.5,3.6-6.8,5.4c-5.7,4.4-11.5,8.7-17.5,12.8   c-9.5,6.5-19.3,12.6-29.4,18.3c-32.4,18.1-68.3,27.2-104.1,27.2c-35.9,0-71.8-9-104.1-27.2c-13.3-7.4-25.9-15.6-38-24.3   c-2.8-2-5.6-4.1-8.4-6.2c-6.5-5-12.8-10.1-18.9-15.5c-1.9-1.6-3.7-3.3-5.5-4.9c-1.1-1-2.3-2.1-3.3-3.1c-0.1,0-0.1-0.1-0.2-0.2   c-27.5-25.5-50.8-54.9-69.6-86.9c-34-58-52.8-124.9-52.8-194.5V430.1c1.3,0.1,2.1,0.1,2.1,0.1c251.5,17.6,352.8-99.8,389.7-156.7   c19.5,1.4,38.8,3.3,57.6,5.6c22.6,2.8,25.9,7.4,47.3,13c45.3,11.7,92.7,63,104.4,111.5c0.4,3.5,0.7,7,0.7,10.5v141.1   c0,21.6-1.8,43-5.3,63.8" id="XMLID_92_"/><path class="st0" d="M794.9,455.9c0,0-38-21.7-40-29.7v-1c0-7-0.9-14.3-2.7-21.6c-11.7-48.5-59.1-99.8-104.4-111.5   c-21.4-5.5-24.8-10.2-47.3-13c-18.8-2.3-38.1-4.2-57.6-5.6c-37,56.9-138.2,174.3-389.7,156.7c0,0-0.7,0-2-0.1   c-7.4-0.4-23.5-2.2-51.1-7.7c0,0,30.1-450.9,448.4-276.1C588.9,115.1,814.3,114.7,794.9,455.9z" id="XMLID_116_"/><path class="st0" d="M374.8,771.1c0,0,74.2,64.9,154.1,0" id="XMLID_606_"/><path class="st0" d="M510.6,516.7c0,0,65.6-45.3,134.6,20" id="XMLID_212_"/><path class="st0" d="M393.3,516.7c0,0-65.6-45.3-134.6,20" id="XMLID_209_"/><path class="st1" d="M841.6,894.2c-74.6,39.8-167,12.9-208.7-60c-0.8-1.3-1.5-2.7-2.3-4.1L593,759.8   c-9.4-17.6-2.8-39.5,14.9-48.9c17.6-9.4,39.5-2.8,48.9,14.8l-94.3-176.5c-7.7-14.5-2.3-32.5,12.2-40.3c14.5-7.8,32.5-2.3,40.3,12.2   L689.2,660c-7.6-14.5-2.1-32.4,12.4-40.1l0.6-0.3c14.5-7.8,32.5-2.3,40.3,12.2l1.9,3.6l11.7,20.5c-2.3-4.4-10.6-21-10.7-25.6   c0.8-3.7,1.4-7.5,2.1-11.2c2.5-6.4,7.2-11.9,13.7-15.4l0.6-0.3c14.5-7.8,32.5-2.3,40.3,12.2l9.2,17.2c-7.8-14.5-2.3-32.5,12.2-40.3   c14.5-7.8,32.5-2.3,40.3,12.2l41.9,78.5C946.2,759.2,917.6,853.6,841.6,894.2z" id="XMLID_115_"/><path class="st0" d="M411.9,659.1c-3.2,24.2,15.6,45.6,40,45.6h0c24.4,0,43.2-21.4,40-45.6" id="XMLID_89_"/></g></svg>