<?xml version="1.0" ?><svg id="Layer_1" style="enable-background:new 0 0 1024 1024;" version="1.1" viewBox="0 0 1024 1024" xml:space="preserve" xmlns="http://www.w3.org/2000/svg" xmlns:xlink="http://www.w3.org/1999/xlink"><style type="text/css">
	.st0{fill:none;stroke:#000000;stroke-width:20;stroke-linejoin:round;stroke-miterlimit:10;}
	.st1{fill:none;stroke:#FF2222;stroke-width:20;stroke-miterlimit:10;}
</style><g id="XMLID_150_"><path class="st0" d="M798.1,333.4c0,28.4-18.1,57.2-43.4,66.3c-6.9,2.5-14.4,3.8-22.1,3.8s-15.2-1.4-22.1-3.8   c-25.3-9.1-43.4-37.8-43.4-66.3c0-36.2,29.3-61.1,65.6-61.1C768.7,272.2,798.1,297.1,798.1,333.4z" id="XMLID_175_"/><path class="st0" d="M357,333.4c0,28.4-18.1,57.2-43.4,66.3c-6.9,2.5-14.4,3.8-22.1,3.8s-15.2-1.4-22.1-3.8   c-25.3-9.1-43.4-37.8-43.4-66.3c0-36.2,29.3-61.1,65.6-61.1S357,297.1,357,333.4z" id="XMLID_176_"/><path class="st0" d="M568.6,213c0,24.5-15.6,49.3-37.5,57.2c-6,2.1-12.4,3.3-19.1,3.3s-13.1-1.2-19.1-3.3   c-21.8-7.8-37.5-32.6-37.5-57.2c0-31.2,25.3-52.7,56.6-52.7S568.6,181.7,568.6,213z" id="XMLID_177_"/><path class="st0" d="M310,571.2c0,33-21,66.3-50.4,76.9c-8,2.9-16.7,4.4-25.7,4.4c-9,0-17.7-1.6-25.7-4.4   c-29.4-10.5-50.4-43.9-50.4-76.9c0-42,34-70.9,76-70.9S310,529.2,310,571.2z" id="XMLID_171_"/><path class="st0" d="M338.3,736.5c-11.6,18.6-18.3,40.6-18.3,64.1v5.1H135.6c-7.6,0-13.8-6.2-13.8-13.8v-23.1   c0-39.1,32-71.1,71.1-71.1h82C302.5,697.7,326.5,713.5,338.3,736.5z" id="XMLID_186_"/><path class="st0" d="M866.1,571.2c0,33-21,66.3-50.4,76.9c-8,2.9-16.7,4.4-25.7,4.4c-9,0-17.7-1.6-25.7-4.4   C735,637.5,714,604.1,714,571.2c0-42,34-70.9,76-70.9C832.1,500.2,866.1,529.2,866.1,571.2z" id="XMLID_174_"/><path class="st0" d="M902.2,768.8v23.1c0,7.6-6.2,13.8-13.8,13.8H704v-5.1c0-23.5-6.7-45.4-18.3-64.1   c11.8-23,35.8-38.9,63.3-38.9h82C870.2,697.7,902.2,729.7,902.2,768.8z" id="XMLID_185_"/><path class="st1" d="M642.2,479.3c0,56.5-36,120.8-86.2,138.9c-13.7,4.9-28.5,7.6-44,7.6c-15.4,0-30.2-2.7-44-7.6   c-50.3-18-86.2-82.4-86.2-138.9c0-71.9,58.3-121.4,130.2-121.4S642.2,407.4,642.2,479.3z" id="XMLID_184_"/><path class="st1" d="M704,800.6v39.5c0,13-10.7,23.7-23.7,23.7H343.7c-13,0-23.7-10.6-23.7-23.7v-39.5   c0-23.5,6.7-45.4,18.3-64.1c21.5-34.6,59.9-57.8,103.5-57.8h140.4c43.5,0,81.9,23.2,103.5,57.8C697.3,755.2,704,777.1,704,800.6z" id="XMLID_192_"/></g></svg>