<?xml version="1.0" ?><svg id="Layer_1" style="enable-background:new 0 0 1024 1024;" version="1.1" viewBox="0 0 1024 1024" xml:space="preserve" xmlns="http://www.w3.org/2000/svg" xmlns:xlink="http://www.w3.org/1999/xlink"><style type="text/css">
	.st0{fill:none;stroke:#FF2222;stroke-width:20;stroke-miterlimit:10;}
	.st1{fill:none;stroke:#000000;stroke-width:20;stroke-linejoin:round;stroke-miterlimit:10;}
</style><g id="XMLID_239_"><circle class="st0" cx="512" cy="363.8" id="XMLID_230_" r="71"/><path class="st0" d="M512,715v113c0,15.9-12.9,28.8-28.8,28.8h-3.4c-15.9,0-28.8-12.9-28.8-28.8V663.7h121.9V828   c0,15.9-12.9,28.8-28.8,28.8h-3.4c-15.9,0-28.8-12.9-28.8-28.8V715z" id="XMLID_246_"/><path class="st0" d="M630.5,526.6v149c0,15.9-12.9,28.8-28.8,28.8h0c-15.9,0-28.8-12.9-28.8-28.8V545.1v118.6   H451.1V545.1v130.5c0,15.9-12.9,28.8-28.8,28.8h0c-15.9,0-28.8-12.9-28.8-28.8v-149c0-31.3,25.4-56.7,56.7-56.7h123.6   C605.1,469.9,630.5,495.3,630.5,526.6z" id="XMLID_237_"/><polyline class="st1" id="XMLID_241_" points="102.3,428.6 512,148.7 921.7,428.6  "/><polygon class="st1" id="XMLID_260_" points="841.9,374.1 841.9,875.3 182.1,875.3 182.1,374.1 267.8,315.5 512,148.7 756.2,315.5     "/></g></svg>