<?xml version="1.0" ?><svg id="Layer_1" style="enable-background:new 0 0 1024 1024;" version="1.1" viewBox="0 0 1024 1024" xml:space="preserve" xmlns="http://www.w3.org/2000/svg" xmlns:xlink="http://www.w3.org/1999/xlink"><style type="text/css">
	.st0{fill:none;stroke:#000000;stroke-width:20;stroke-linejoin:round;stroke-miterlimit:10;}
	.st1{fill:none;stroke:#FF2222;stroke-width:20;stroke-miterlimit:10;}
</style><g id="XMLID_189_"><path class="st0" d="M254.6,559.3c-5-4.8-10.6-8.8-16.5-12.1c-11.9-6.6-25.4-10.2-39.4-10.2h-75V294.6h75   c28,0,54-14.4,68.9-38.2c8.1-13,19.3-23.5,32.3-30.7c13-7.2,59.5-16.8,74.8-16.8l246.8-64.1c4.5-1.4,9-2.1,13.4-2.1   c18.4,0,35.4,11.7,41.4,30.1c7.4,22.9-5.2,47.4-28,54.8L533.8,266h225.5c12,0,22.9,4.9,30.8,12.7c7.9,7.9,12.7,18.8,12.7,30.8   c0,24-19.5,43.5-43.5,43.5h-48.9" id="XMLID_193_"/><path class="st0" d="M710.7,354h98.6c12,0,22.9,4.9,30.8,12.7c7.9,7.9,12.7,18.7,12.7,30.8   c0,24-19.5,43.5-43.5,43.5h-10.8" id="XMLID_183_"/><path class="st1" d="M266.9,544.6c-0.8-5.3-1.2-10.8-1.2-16.3c0-54.9,39.4-100.6,91.4-110.5   c1.5-23,20.6-41.1,43.9-41.1c8.7,0,16.7,2.5,23.5,6.8c11.5-28.8,39.7-49.2,72.7-49.2c18.3,0,35.1,6.3,48.4,16.8   c12.8-32.7,44.7-55.9,82-55.9c38,0,70.4,24.1,82.7,57.8c0.1,0.3,0.2,0.7,0.4,1c3.2,9.1,5,19,5,29.2v0.6c3.2-0.4,6.5-0.6,9.8-0.6   c35.5,0,65.2,24.7,73,57.8c1.3,5.5,2,11.3,2,17.2c0,12.3-3,24-8.3,34.3c-8.7,17-23.7,30.1-41.9,36.5c-4,1.4-8.2,2.5-12.5,3.2   c0.5,2.4,0.7,5,0.7,7.5c0,4.7-0.9,9.3-2.4,13.5" id="XMLID_188_"/><circle class="st1" cx="339.2" cy="732.9" id="XMLID_180_" r="45.7"/><circle class="st1" cx="845.1" cy="158.1" id="XMLID_179_" r="10.8"/><circle class="st1" cx="173.8" cy="141.8" id="XMLID_173_" r="28"/><circle class="st1" cx="867.9" cy="877.7" id="XMLID_172_" r="32.4"/><path class="st0" d="M852.8,684.5c0,24-19.5,43.5-43.5,43.5H553.8v1h195.5c12,0,22.9,4.9,30.8,12.7   c7.9,7.9,12.7,18.8,12.7,30.8c0,24-19.5,43.5-43.5,43.5H533.8v1h145.5c12,0,22.9,4.9,30.8,12.7c7.9,7.9,12.7,18.8,12.7,30.8   c0,24-19.5,43.5-43.5,43.5H343.1c-30.7,0-59.2-15.8-75.5-41.8c-7.4-11.9-17.6-21.4-29.5-28c-11.9-6.6-25.4-10.2-39.4-10.2h-75   V581.6h75c21.1,0,41-8.2,55.9-22.3c4.9-4.7,9.3-10,13-15.9c8.1-13,19.3-23.5,32.3-30.7c13-7.2,59.5-16.8,74.8-16.8l208.1-54l3.8-1   l34.9-9c4.5-1.4,9-2.1,13.4-2.1c10.8,0,21.2,4.1,29.1,11.2c0.4,0.3,0.7,0.7,1.1,1c5,4.8,8.9,10.9,11.2,18   c7.4,22.9-5.2,47.4-28,54.8L605.6,529l-3,1l-68.9,23h225.5c12,0,22.9,4.9,30.8,12.7c7.9,7.9,12.7,18.8,12.7,30.8   c0,24-19.5,43.5-43.5,43.5H553.8v1h255.5c12,0,22.9,4.9,30.8,12.7C847.9,661.6,852.8,672.5,852.8,684.5z" id="XMLID_200_"/></g></svg>