<?xml version="1.0" ?><svg id="Layer_1" style="enable-background:new 0 0 1024 1024;" version="1.1" viewBox="0 0 1024 1024" xml:space="preserve" xmlns="http://www.w3.org/2000/svg" xmlns:xlink="http://www.w3.org/1999/xlink"><style type="text/css">
	.st0{fill:none;stroke:#000000;stroke-width:20;stroke-miterlimit:10;}
	.st1{fill:none;stroke:#FF2222;stroke-width:20;stroke-miterlimit:10;}
</style><g id="XMLID_105_"><path class="st0" d="M530.2,405.4H248.1c-36.8,0-66.6,29.8-66.6,66.6v424.9c0,10.7,8.7,19.4,19.4,19.4h376.3   c10.7,0,19.4-8.7,19.4-19.4V472C596.8,435.2,567,405.4,530.2,405.4z" id="XMLID_97_"/><path class="st0" d="M451.4,315.6H326.9c-16.1,0-29.2,13.1-29.2,29.2v60.7h182.9v-60.7   C480.6,328.6,467.6,315.6,451.4,315.6z" id="XMLID_98_"/><path class="st0" d="M428.4,180.8H350c-4.9,0-8.9,4-8.9,8.9v125.8h96.2V189.8C437.3,184.8,433.3,180.8,428.4,180.8   z" id="XMLID_104_"/><polygon class="st1" id="XMLID_120_" points="504.7,625.5 504.7,696.1 424.5,696.1 424.5,776.3 353.9,776.3 353.9,696.1    273.7,696.1 273.7,625.5 353.9,625.5 353.9,545.4 424.5,545.4 424.5,625.5  "/><line class="st1" id="XMLID_114_" x1="561.5" x2="598.3" y1="235.3" y2="235.3"/><line class="st1" id="XMLID_113_" x1="646.2" x2="683" y1="235.3" y2="235.3"/><line class="st1" id="XMLID_112_" x1="730.9" x2="767.7" y1="235.3" y2="235.3"/><line class="st1" id="XMLID_106_" x1="815.6" x2="852.4" y1="235.3" y2="235.3"/><line class="st1" id="XMLID_117_" x1="555.2" x2="590.8" y1="180.3" y2="170.9"/><line class="st1" id="XMLID_111_" x1="637.1" x2="672.7" y1="158.6" y2="149.1"/><line class="st1" id="XMLID_110_" x1="719" x2="754.5" y1="136.9" y2="127.4"/><line class="st1" id="XMLID_109_" x1="800.9" x2="836.4" y1="115.2" y2="105.7"/><line class="st1" id="XMLID_123_" x1="555.2" x2="590.8" y1="290.4" y2="299.9"/><line class="st1" id="XMLID_122_" x1="637.1" x2="672.7" y1="312.1" y2="321.6"/><line class="st1" id="XMLID_121_" x1="719" x2="754.5" y1="333.9" y2="343.3"/><line class="st1" id="XMLID_119_" x1="800.9" x2="836.4" y1="355.6" y2="365"/><line class="st0" id="XMLID_125_" x1="400" x2="435.6" y1="235.3" y2="235.3"/></g></svg>