<?xml version="1.0" ?><svg id="Layer_1" style="enable-background:new 0 0 1024 1024;" version="1.1" viewBox="0 0 1024 1024" xml:space="preserve" xmlns="http://www.w3.org/2000/svg" xmlns:xlink="http://www.w3.org/1999/xlink"><style type="text/css">
	.st0{fill:none;stroke:#FF2222;stroke-width:20;stroke-miterlimit:10;}
	.st1{fill:none;stroke:#000000;stroke-width:20;stroke-miterlimit:10;}
</style><g id="XMLID_60_"><path class="st0" d="M372.1,876.3v-58.7c0-97.8,79.3-177.1,177.1-177.1h0" id="XMLID_102_"/><path class="st0" d="M372.1,793v-78c0-91.4,74.1-165.5,165.5-165.5h107.9" id="XMLID_103_"/><path class="st1" d="M683.5,549.5h-38v21.4c0,4.1-2.4,7.9-6.1,9.6l-74.6,34.1c-19.9,9.1-19.9,37.3,0,46.4l80.7,36.9   v18.1c0,23.3-18.9,42.3-42.3,42.3h-48.5c-23.4,0-42.3,18.9-42.3,42.3v75.7H232.7v-89.1c0-37.2-6.6-73.8-19.1-108.3   c19.9-10.2,39.3-24.1,53.9-42.6c56.9-72.1,41.4-252.9,41.4-252.9s111.8,1.8,199.8-46.8c32.6-18,55.9-40.5,72.8-63.7   c6.5-9,12.1-18,16.9-27c6.6,8.5,12.5,17.5,17.8,26.9c19,33.6,29.4,72.1,29.4,112c0,14.4,3.7,28.5,10.7,41.1l48.6,87.4   C713.8,529.6,702.1,549.5,683.5,549.5z" id="XMLID_91_"/><path class="st1" d="M627.5,162.2c-4.3,17.5-10.9,49.6-29.1,83.7c-4.8,8.9-10.4,18-16.9,27   c-16.9,23.1-40.2,45.6-72.8,63.7c-88,48.6-199.8,46.8-199.8,46.8s15.5,180.8-41.4,252.9c-14.7,18.6-34,32.4-53.9,42.6   c-1.4,0.7-2.8,1.4-4.2,2.1c-22.1,10.8-44.6,17.3-61.7,21c-13.4,2.9-26.1-7.3-26.1-21V421.6c0-151.3,122.6-273.9,273.9-273.9h220.6   C623.7,147.7,629.3,154.8,627.5,162.2z" id="XMLID_94_"/><path class="st1" d="M600.7,416.4c0,0-46.8-13.2-98,25.2" id="XMLID_85_"/><line class="st0" id="XMLID_88_" x1="739.9" x2="773" y1="650.1" y2="650.1"/><line class="st0" id="XMLID_87_" x1="809.7" x2="842.7" y1="650.1" y2="650.1"/><line class="st0" id="XMLID_86_" x1="879.4" x2="912.5" y1="650.1" y2="650.1"/><line class="st0" id="XMLID_96_" x1="714.2" x2="741.7" y1="581" y2="562.8"/><line class="st0" id="XMLID_95_" x1="772.3" x2="799.9" y1="542.5" y2="524.3"/><line class="st0" id="XMLID_93_" x1="830.4" x2="858" y1="504" y2="485.8"/><line class="st0" id="XMLID_101_" x1="714.2" x2="741.7" y1="719.3" y2="737.5"/><line class="st0" id="XMLID_100_" x1="772.3" x2="799.9" y1="757.8" y2="776"/><line class="st0" id="XMLID_99_" x1="830.4" x2="858" y1="796.2" y2="814.5"/></g></svg>